# This file uses centimeters as units for non-parametric coordinates.

mtllib 2x2panel.mtl
g default
v -3.000000 -0.050000 3.000000
v 3.000000 -0.050000 3.000000
v -3.000000 0.050000 3.000000
v 3.000000 0.050000 3.000000
v -3.000000 0.050000 -3.000000
v 3.000000 0.050000 -3.000000
v -3.000000 -0.050000 -3.000000
v 3.000000 -0.050000 -3.000000
v -2.850000 0.060000 2.850000
v 2.850000 0.060000 2.850000
v 2.850000 0.060000 -2.850000
v -2.850000 0.060000 -2.850000
v -2.850000 0.023737 2.850000
v 2.850000 0.023737 2.850000
v 2.850000 0.023737 -2.850000
v -2.850000 0.023737 -2.850000
v -3.000000 -0.060000 -3.000000
v 3.000000 -0.060000 -3.000000
v 3.000000 -0.060000 3.000000
v -3.000000 -0.060000 3.000000
v -2.700000 -0.070000 -2.700000
v 2.700000 -0.070000 -2.700000
v 2.700000 -0.070000 2.700000
v -2.700000 -0.070000 2.700000
v -2.538000 -0.350000 -2.538000
v 2.538000 -0.350000 -2.538000
v 2.538000 -0.350000 2.538000
v -2.538000 -0.350000 2.538000
v 0.000000 0.054876 -2.926856
v 0.000000 0.050000 -3.000000
v 0.000000 -0.050000 -3.000000
v 0.000000 -0.060000 -3.000000
v 0.000000 -0.070000 -2.700000
v 0.000000 -0.350000 -2.538000
v 0.000000 -0.350000 2.538000
v 0.000000 -0.070000 2.700000
v 0.000000 -0.060000 3.000000
v 0.000000 -0.050000 3.000000
v 0.000000 0.050000 3.000000
v 0.000000 0.060000 2.850000
v 0.000000 0.023737 2.850000
v 0.000000 0.023737 -2.850000
v 0.000000 0.060000 -2.850000
v -3.000000 0.050000 0.000000
v -3.000000 -0.050000 0.000000
v -3.000000 -0.060000 0.000000
v -2.700000 -0.070000 0.000000
v -2.538000 -0.350000 0.000000
v 0.000000 -0.350000 0.000000
v 2.538000 -0.350000 0.000000
v 2.700000 -0.070000 0.000000
v 3.000000 -0.060000 0.000000
v 3.000000 -0.050000 0.000000
v 3.000000 0.050000 0.000000
v 2.850000 0.060000 0.000000
v 2.850000 0.023737 0.000000
v -2.850000 0.023737 0.000000
v -2.850000 0.060000 0.000000
vt 0.375000 0.000000
vt 0.500000 0.000000
vt 0.500000 0.250000
vt 0.375000 0.250000
vt 0.375000 0.500000
vt 0.500000 0.500000
vt 0.500000 0.750000
vt 0.375000 0.750000
vt 0.375000 0.875000
vt 0.500000 0.875000
vt 0.500000 1.000000
vt 0.375000 1.000000
vt 0.625000 0.000000
vt 0.750000 0.000000
vt 0.750000 0.250000
vt 0.625000 0.250000
vt 0.250000 0.250000
vt 0.250000 0.000000
vt 0.500000 0.250000
vt 0.375000 0.250000
vt 0.625000 0.375000
vt 0.625000 0.375000
vt 0.625000 0.250000
vt 0.625000 0.500000
vt 0.500000 0.500000
vt 0.375000 0.500000
vt 0.500000 0.500000
vt 0.375000 0.375000
vt 0.375000 0.375000
vt 0.500000 0.250000
vt 0.375000 0.250000
vt 0.625000 0.375000
vt 0.625000 0.250000
vt 0.500000 0.500000
vt 0.375000 0.500000
vt 0.375000 0.375000
vt 0.500000 0.750000
vt 0.375000 0.750000
vt 0.625000 0.875000
vt 0.625000 0.875000
vt 0.625000 1.000000
vt 0.625000 1.000000
vt 0.500000 1.000000
vt 0.500000 1.000000
vt 0.375000 1.000000
vt 0.375000 1.000000
vt 0.375000 0.875000
vt 0.375000 0.875000
vt 0.500000 0.750000
vt 0.375000 0.750000
vt 0.625000 0.875000
vt 0.625000 1.000000
vt 0.500000 1.000000
vt 0.375000 1.000000
vt 0.375000 0.875000
vt 0.500000 0.750000
vt 0.375000 0.750000
vt 0.625000 0.875000
vt 0.625000 1.000000
vt 0.625000 0.500000
vt 0.625000 0.750000
vt 0.625000 0.750000
vt 0.625000 0.750000
vt 0.625000 0.750000
vt 0.625000 0.500000
vt 0.125000 0.000000
vt 0.125000 0.250000
vt 0.875000 0.000000
vt 0.875000 0.250000
vn 0.000000 0.000000 1.000000
vn 0.000000 0.000000 1.000000
vn 0.000000 0.000000 1.000000
vn 0.000000 0.000000 1.000000
vn 0.000000 0.000000 -1.000000
vn 0.000000 0.000000 -1.000000
vn 0.000000 0.000000 -1.000000
vn 0.000000 0.000000 -1.000000
vn 0.000000 -1.000000 0.000000
vn 0.000000 -1.000000 0.000000
vn 0.000000 -1.000000 0.000000
vn 0.000000 -1.000000 0.000000
vn 1.000000 0.000000 0.000000
vn 1.000000 0.000000 0.000000
vn 1.000000 0.000000 0.000000
vn 1.000000 0.000000 0.000000
vn -1.000000 0.000000 0.000000
vn -1.000000 0.000000 0.000000
vn -1.000000 0.000000 0.000000
vn -1.000000 0.000000 0.000000
vn -0.033296 0.998891 0.033296
vn 0.000000 0.997785 0.066519
vn 0.000000 0.997785 0.066519
vn -0.033296 0.998891 0.033296
vn 0.033296 0.998891 0.033296
vn 0.066519 0.997785 0.000000
vn 0.066519 0.997785 0.000000
vn 0.033296 0.998891 0.033296
vn 0.044381 0.998768 -0.022204
vn 0.000000 0.997785 -0.066519
vn -0.044381 0.998768 -0.022204
vn 0.000000 0.997785 -0.066519
vn -0.066519 0.997785 0.000000
vn -0.066519 0.997785 0.000000
vn 0.000000 0.000000 -1.000000
vn 0.000000 0.000000 -1.000000
vn 0.000000 0.000000 -1.000000
vn 0.000000 0.000000 -1.000000
vn -1.000000 0.000000 0.000000
vn -1.000000 0.000000 0.000000
vn -1.000000 0.000000 0.000000
vn -1.000000 0.000000 0.000000
vn 0.000000 0.000000 1.000000
vn 0.000000 0.000000 1.000000
vn 0.000000 0.000000 1.000000
vn 0.000000 0.000000 1.000000
vn 1.000000 0.000000 0.000000
vn 1.000000 0.000000 0.000000
vn 1.000000 0.000000 0.000000
vn 1.000000 0.000000 0.000000
vn 0.000000 0.000000 -1.000000
vn 0.000000 0.000000 -1.000000
vn 1.000000 0.000000 0.000000
vn 1.000000 0.000000 0.000000
vn 0.000000 0.000000 1.000000
vn 0.000000 0.000000 1.000000
vn -1.000000 0.000000 0.000000
vn -1.000000 0.000000 0.000000
vn -0.016662 -0.999722 -0.016662
vn 0.000000 -0.999445 -0.033315
vn 0.000000 -0.999445 -0.033315
vn -0.016662 -0.999722 -0.016662
vn 0.033315 -0.999445 0.000000
vn 0.033315 -0.999445 0.000000
vn 0.016662 -0.999722 0.016662
vn 0.016662 -0.999722 0.016662
vn 0.000000 -0.999445 0.033315
vn 0.000000 -0.999445 0.033315
vn -0.016662 -0.999722 0.016662
vn -0.016662 -0.999722 0.016662
vn -0.033315 -0.999445 0.000000
vn -0.033315 -0.999445 0.000000
vn 0.000000 -0.500793 -0.865567
vn 0.000000 -0.500793 -0.865567
vn 0.000000 -0.500793 -0.865567
vn 0.000000 -0.500793 -0.865567
vn 0.865567 -0.500793 0.000000
vn 0.865567 -0.500793 0.000000
vn 0.865567 -0.500793 0.000000
vn 0.865567 -0.500793 0.000000
vn 0.000000 -0.500793 0.865567
vn 0.000000 -0.500793 0.865567
vn 0.000000 -0.500793 0.865567
vn 0.000000 -0.500793 0.865567
vn -0.865567 -0.500793 0.000000
vn -0.865567 -0.500793 0.000000
vn -0.865567 -0.500793 0.000000
vn -0.865567 -0.500793 0.000000
vn 0.044380 0.998768 -0.022204
vn 0.000000 0.997785 -0.066519
vn -0.044380 0.998768 -0.022204
vn 0.000000 0.000000 -1.000000
vn 0.000000 0.000000 -1.000000
vn 0.000000 0.000000 -1.000000
vn 0.016662 -0.999722 -0.016662
vn 0.016662 -0.999722 -0.016662
vn 0.000000 -0.500793 -0.865567
vn 0.000000 -0.500793 -0.865567
vn 0.000000 -1.000000 0.000000
vn 0.000000 -1.000000 0.000000
vn 0.000000 -0.500793 0.865567
vn 0.000000 -0.500793 0.865567
vn 0.000000 0.000000 1.000000
vn 0.000000 0.000000 1.000000
vn 0.000000 0.000000 1.000000
vn 0.000000 0.000000 -1.000000
vn 0.000000 0.000000 -1.000000
vn 0.000000 0.000000 1.000000
vn 0.000000 0.000000 1.000000
vn -1.000000 0.000000 0.000000
vn -1.000000 0.000000 0.000000
vn -1.000000 0.000000 0.000000
vn -0.865567 -0.500793 0.000000
vn -0.865567 -0.500793 0.000000
vn 0.000000 -1.000000 0.000000
vn 0.000000 -1.000000 0.000000
vn 0.000000 -1.000000 0.000000
vn 0.865567 -0.500793 0.000000
vn 0.865567 -0.500793 0.000000
vn 1.000000 0.000000 0.000000
vn 1.000000 0.000000 0.000000
vn 1.000000 0.000000 0.000000
vn -1.000000 0.000000 0.000000
vn -1.000000 0.000000 0.000000
vn 1.000000 0.000000 0.000000
vn 1.000000 0.000000 0.000000
s 1
g frame X2Panel squarePanel originals
usemtl initialShadingGroup
f 1/1/1 38/2/2 39/3/3 3/4/4
s 2
f 5/5/5 30/6/6 31/7/7 7/8/8
s 3
f 48/9/9 49/10/10 35/11/11 28/12/12
s 4
f 2/13/13 53/14/14 54/15/15 4/16/16
s 5
f 44/17/17 45/18/18 1/1/19 3/4/20
s 6
f 3/4/21 39/3/22 40/19/23 9/20/24
f 4/16/25 54/21/26 55/22/27 10/23/28
f 11/24/29 29/25/30 12/26/31 43/27/32
f 58/28/33 44/29/34 3/4/21 9/20/24
s 9
f 9/20/35 40/19/36 41/30/37 13/31/38
s 10
f 10/23/39 55/22/40 56/32/41 14/33/42
s 11
f 42/34/43 43/27/44 12/26/45 16/35/46
s 12
f 57/36/47 58/28/48 9/20/49 13/31/50
s 2
f 7/8/8 31/7/7 32/37/51 17/38/52
s 4
f 52/39/53 53/40/14 2/41/13 19/42/54
s 1
f 37/43/55 38/44/2 1/45/1 20/46/56
s 5
f 1/45/19 45/47/18 46/48/57 20/46/58
s 13
f 17/38/59 32/37/60 33/49/61 21/50/62
f 51/51/63 52/39/64 19/42/65 23/52/66
f 36/53/67 37/43/68 20/46/69 24/54/70
f 20/46/69 46/48/71 47/55/72 24/54/70
s 15
f 21/50/73 33/49/74 34/56/75 25/57/76
s 16
f 50/58/77 51/51/78 23/52/79 27/59/80
s 17
f 35/11/81 36/53/82 24/54/83 28/12/84
s 18
f 24/54/85 47/55/86 48/9/87 28/12/88
s 6
f 6/60/89 30/6/90 5/5/91 29/25/30
f 29/25/30 5/5/91 12/26/31
f 6/60/89 29/25/30 11/24/29
s 2
f 31/7/7 30/6/6 6/60/92 8/61/93
f 32/37/51 31/7/7 8/61/93 18/62/94
s 13
f 33/49/61 32/37/60 18/62/95 22/63/96
s 15
f 34/56/75 33/49/74 22/63/97 26/64/98
s 3
f 35/11/11 49/10/10 50/58/99 27/59/100
s 17
f 23/52/101 36/53/82 35/11/81 27/59/102
s 13
f 19/42/65 37/43/68 36/53/67 23/52/66
s 1
f 2/41/103 38/44/2 37/43/55 19/42/104
f 39/3/3 38/2/2 2/13/103 4/16/105
s 6
f 40/19/23 39/3/22 4/16/25 10/23/28
s 9
f 41/30/37 40/19/36 10/23/106 14/33/107
s 11
f 11/24/108 43/27/44 42/34/43 15/65/109
s 5
f 7/66/110 45/18/18 44/17/17 5/67/111
f 46/48/57 45/47/18 7/8/110 17/38/112
s 13
f 47/55/72 46/48/71 17/38/59 21/50/62
s 18
f 48/9/87 47/55/86 21/50/113 25/57/114
s 3
f 25/57/115 34/56/116 49/10/10 48/9/9
f 50/58/99 49/10/10 34/56/116 26/64/117
s 16
f 22/63/118 51/51/78 50/58/77 26/64/119
s 13
f 18/62/95 52/39/64 51/51/63 22/63/96
s 4
f 8/61/120 53/40/14 52/39/53 18/62/121
f 54/15/15 53/14/14 8/68/120 6/69/122
s 6
f 55/22/27 54/21/26 6/60/89 11/24/29
s 10
f 56/32/41 55/22/40 11/24/123 15/65/124
s 12
f 12/26/125 58/28/48 57/36/47 16/35/126
s 6
f 5/5/91 44/29/34 58/28/33 12/26/31
g default
v -2.500000 -0.330000 -2.635310
v -0.000000 -0.330000 -2.635310
v 2.500000 -0.330000 -2.635310
v -2.500000 -0.060000 -2.635310
v -0.000000 -0.060000 -2.635310
v 2.500000 -0.060000 -2.635310
v -2.500000 -0.060000 -2.985310
v -0.000000 -0.060000 -2.985310
v 2.500000 -0.060000 -2.985310
v -2.500000 -0.330000 -2.985310
v -0.000000 -0.330000 -2.985310
v 2.500000 -0.330000 -2.985310
vt 0.375000 0.000000
vt 0.500000 0.000000
vt 0.625000 0.000000
vt 0.375000 0.250000
vt 0.500000 0.250000
vt 0.625000 0.250000
vt 0.375000 0.500000
vt 0.500000 0.500000
vt 0.625000 0.500000
vt 0.375000 0.750000
vt 0.500000 0.750000
vt 0.625000 0.750000
vt 0.375000 1.000000
vt 0.500000 1.000000
vt 0.625000 1.000000
vt 0.875000 0.000000
vt 0.875000 0.250000
vt 0.125000 0.000000
vt 0.125000 0.250000
vn 0.000000 0.000000 1.000000
vn 0.000000 0.000000 1.000000
vn 0.000000 0.000000 1.000000
vn 0.000000 0.000000 1.000000
vn 0.000000 0.000000 1.000000
vn 0.000000 0.000000 1.000000
vn 0.000000 1.000000 0.000000
vn 0.000000 1.000000 0.000000
vn 0.000000 1.000000 0.000000
vn 0.000000 1.000000 0.000000
vn 0.000000 1.000000 0.000000
vn 0.000000 1.000000 0.000000
vn 0.000000 0.000000 -1.000000
vn 0.000000 0.000000 -1.000000
vn 0.000000 0.000000 -1.000000
vn 0.000000 0.000000 -1.000000
vn 0.000000 0.000000 -1.000000
vn 0.000000 0.000000 -1.000000
vn 0.000000 -1.000000 0.000000
vn 0.000000 -1.000000 0.000000
vn 0.000000 -1.000000 0.000000
vn 0.000000 -1.000000 0.000000
vn 0.000000 -1.000000 0.000000
vn 0.000000 -1.000000 0.000000
vn 1.000000 0.000000 0.000000
vn 1.000000 0.000000 0.000000
vn 1.000000 0.000000 0.000000
vn 1.000000 0.000000 0.000000
vn -1.000000 0.000000 0.000000
vn -1.000000 0.000000 0.000000
vn -1.000000 0.000000 0.000000
vn -1.000000 0.000000 0.000000
s 1
g squarePanel originals powerSupply
usemtl initialShadingGroup
f 59/70/127 60/71/128 63/74/129 62/73/130
f 60/71/128 61/72/131 64/75/132 63/74/129
s 2
f 62/73/133 63/74/134 66/77/135 65/76/136
f 63/74/134 64/75/137 67/78/138 66/77/135
s 3
f 65/76/139 66/77/140 69/80/141 68/79/142
f 66/77/140 67/78/143 70/81/144 69/80/141
s 4
f 68/79/145 69/80/146 60/83/147 59/82/148
f 69/80/146 70/81/149 61/84/150 60/83/147
s off
f 61/72/151 70/85/152 67/86/153 64/75/154
f 68/87/155 59/70/156 62/73/157 65/88/158
