# This file uses centimeters as units for non-parametric coordinates.

mtllib 2x4panel.mtl
g default
v -10.662981 -0.050000 6.050000
v -4.662981 -0.050000 6.050000
v -10.662981 0.050000 6.050000
v -4.662981 0.050000 6.050000
v -10.662981 0.050000 -6.050000
v -4.662981 0.050000 -6.050000
v -10.662981 -0.050000 -6.050000
v -4.662981 -0.050000 -6.050000
v -10.512981 0.060000 5.900000
v -4.812981 0.060000 5.900000
v -4.812981 0.060000 -5.900000
v -10.512981 0.060000 -5.900000
v -10.512981 0.023737 5.900000
v -4.812981 0.023737 5.900000
v -4.812981 0.023737 -5.900000
v -10.512981 0.023737 -5.900000
v -10.662981 -0.060000 -6.050000
v -4.662981 -0.060000 -6.050000
v -4.662981 -0.060000 6.050000
v -10.662981 -0.060000 6.050000
v -10.362981 -0.070000 -5.750000
v -4.962980 -0.070000 -5.750000
v -4.962980 -0.070000 5.750000
v -10.362981 -0.070000 5.750000
v -10.200980 -0.350000 -5.405000
v -5.124981 -0.350000 -5.405000
v -5.124981 -0.350000 5.405000
v -10.200980 -0.350000 5.405000
v -7.662981 0.054876 -5.976857
v -7.662981 0.050000 -6.050000
v -7.662981 -0.050000 -6.050000
v -7.662981 -0.060000 -6.050000
v -7.662981 -0.070000 -5.750000
v -7.662981 -0.350000 -5.405000
v -7.662981 -0.350000 5.405000
v -7.662981 -0.070000 5.750000
v -7.662981 -0.060000 6.050000
v -7.662981 -0.050000 6.050000
v -7.662981 0.050000 6.050000
v -7.662981 0.060000 5.900000
v -7.662981 0.023737 5.900000
v -7.662981 0.023737 -5.900000
v -7.662981 0.060000 -5.900000
v -10.662981 0.050000 0.000000
v -10.662981 -0.050000 0.000000
v -10.662981 -0.060000 0.000000
v -10.362981 -0.070000 0.000000
v -10.200980 -0.350000 0.000000
v -7.662981 -0.350000 0.000000
v -5.124981 -0.350000 0.000000
v -4.962980 -0.070000 0.000000
v -4.662981 -0.060000 0.000000
v -4.662981 -0.050000 0.000000
v -4.662981 0.050000 0.000000
v -4.812981 0.060000 0.000000
v -4.812981 0.023737 0.000000
v -10.512981 0.023737 0.000000
v -10.512981 0.060000 0.000000
vt 0.375000 0.000000
vt 0.500000 0.000000
vt 0.500000 0.250000
vt 0.375000 0.250000
vt 0.375000 0.500000
vt 0.500000 0.500000
vt 0.500000 0.750000
vt 0.375000 0.750000
vt 0.375000 0.875000
vt 0.500000 0.875000
vt 0.500000 1.000000
vt 0.375000 1.000000
vt 0.625000 0.000000
vt 0.750000 0.000000
vt 0.750000 0.250000
vt 0.625000 0.250000
vt 0.250000 0.250000
vt 0.250000 0.000000
vt 0.500000 0.250000
vt 0.375000 0.250000
vt 0.625000 0.375000
vt 0.625000 0.375000
vt 0.625000 0.250000
vt 0.625000 0.500000
vt 0.500000 0.500000
vt 0.375000 0.500000
vt 0.500000 0.500000
vt 0.375000 0.375000
vt 0.375000 0.375000
vt 0.500000 0.250000
vt 0.375000 0.250000
vt 0.625000 0.375000
vt 0.625000 0.250000
vt 0.500000 0.500000
vt 0.375000 0.500000
vt 0.375000 0.375000
vt 0.500000 0.750000
vt 0.375000 0.750000
vt 0.625000 0.875000
vt 0.625000 0.875000
vt 0.625000 1.000000
vt 0.625000 1.000000
vt 0.500000 1.000000
vt 0.500000 1.000000
vt 0.375000 1.000000
vt 0.375000 1.000000
vt 0.375000 0.875000
vt 0.375000 0.875000
vt 0.500000 0.750000
vt 0.375000 0.750000
vt 0.625000 0.875000
vt 0.625000 1.000000
vt 0.500000 1.000000
vt 0.375000 1.000000
vt 0.375000 0.875000
vt 0.500000 0.750000
vt 0.375000 0.750000
vt 0.625000 0.875000
vt 0.625000 1.000000
vt 0.625000 0.500000
vt 0.625000 0.750000
vt 0.625000 0.750000
vt 0.625000 0.750000
vt 0.625000 0.750000
vt 0.625000 0.500000
vt 0.125000 0.000000
vt 0.125000 0.250000
vt 0.875000 0.000000
vt 0.875000 0.250000
vn 0.000000 0.000000 1.000000
vn 0.000000 0.000000 1.000000
vn 0.000000 0.000000 1.000000
vn 0.000000 0.000000 1.000000
vn 0.000000 0.000000 -1.000000
vn 0.000000 0.000000 -1.000000
vn 0.000000 0.000000 -1.000000
vn 0.000000 0.000000 -1.000000
vn 0.000000 -1.000000 0.000000
vn 0.000000 -1.000000 0.000000
vn 0.000000 -1.000000 0.000000
vn 0.000000 -1.000000 0.000000
vn 1.000000 0.000000 0.000000
vn 1.000000 0.000000 0.000000
vn 1.000000 0.000000 0.000000
vn 1.000000 0.000000 0.000000
vn -1.000000 0.000000 0.000000
vn -1.000000 0.000000 0.000000
vn -1.000000 0.000000 0.000000
vn -1.000000 0.000000 0.000000
vn -0.044701 0.998761 0.021883
vn 0.000000 0.997785 0.066519
vn 0.000000 0.997785 0.066519
vn -0.044701 0.998761 0.021883
vn 0.044701 0.998761 0.021883
vn 0.066519 0.997785 0.000000
vn 0.066519 0.997785 0.000000
vn 0.044701 0.998761 0.021883
vn 0.053470 0.998484 -0.013096
vn -0.000000 0.997785 -0.066519
vn -0.053470 0.998484 -0.013096
vn 0.000000 0.997785 -0.066518
vn -0.066519 0.997785 0.000000
vn -0.066519 0.997785 0.000000
vn 0.000000 0.000000 -1.000000
vn 0.000000 0.000000 -1.000000
vn 0.000000 0.000000 -1.000000
vn 0.000000 0.000000 -1.000000
vn -1.000000 0.000000 0.000000
vn -1.000000 0.000000 0.000000
vn -1.000000 0.000000 0.000000
vn -1.000000 0.000000 0.000000
vn 0.000000 0.000000 1.000000
vn 0.000000 0.000000 1.000000
vn 0.000000 0.000000 1.000000
vn 0.000000 0.000000 1.000000
vn 1.000000 0.000000 0.000000
vn 1.000000 0.000000 0.000000
vn 1.000000 0.000000 0.000000
vn 1.000000 0.000000 0.000000
vn 0.000000 0.000000 -1.000000
vn 0.000000 0.000000 -1.000000
vn 1.000000 0.000000 0.000000
vn 1.000000 0.000000 0.000000
vn 0.000000 0.000000 1.000000
vn 0.000000 0.000000 1.000000
vn -1.000000 0.000000 0.000000
vn -1.000000 0.000000 0.000000
vn -0.022469 -0.999689 -0.010854
vn 0.000000 -0.999445 -0.033315
vn 0.000000 -0.999445 -0.033315
vn -0.022469 -0.999689 -0.010854
vn 0.033315 -0.999445 0.000000
vn 0.033315 -0.999445 0.000000
vn 0.022469 -0.999689 0.010854
vn 0.022469 -0.999689 0.010854
vn 0.000000 -0.999445 0.033315
vn 0.000000 -0.999445 0.033315
vn -0.022469 -0.999689 0.010854
vn -0.022469 -0.999689 0.010854
vn -0.033315 -0.999445 0.000000
vn -0.033315 -0.999445 0.000000
vn 0.000000 -0.776458 -0.630169
vn 0.000000 -0.776458 -0.630169
vn 0.000000 -0.776458 -0.630169
vn 0.000000 -0.776458 -0.630169
vn 0.865566 -0.500794 0.000000
vn 0.865566 -0.500794 0.000000
vn 0.865566 -0.500794 0.000000
vn 0.865567 -0.500794 0.000000
vn 0.000000 -0.776458 0.630169
vn 0.000000 -0.776458 0.630169
vn 0.000000 -0.776458 0.630169
vn 0.000000 -0.776458 0.630169
vn -0.865566 -0.500794 0.000000
vn -0.865566 -0.500794 0.000000
vn -0.865566 -0.500794 0.000000
vn -0.865566 -0.500794 0.000000
vn 0.053470 0.998484 -0.013096
vn 0.000000 0.997785 -0.066520
vn -0.053470 0.998484 -0.013096
vn 0.000000 0.000000 -1.000000
vn 0.000000 0.000000 -1.000000
vn 0.000000 0.000000 -1.000000
vn 0.022469 -0.999689 -0.010854
vn 0.022469 -0.999689 -0.010854
vn 0.000000 -0.776458 -0.630169
vn 0.000000 -0.776458 -0.630169
vn 0.000000 -1.000000 0.000000
vn 0.000000 -1.000000 0.000000
vn 0.000000 -0.776458 0.630169
vn 0.000000 -0.776458 0.630169
vn 0.000000 0.000000 1.000000
vn 0.000000 0.000000 1.000000
vn 0.000000 0.000000 1.000000
vn 0.000000 0.000000 -1.000000
vn 0.000000 0.000000 -1.000000
vn 0.000000 0.000000 1.000000
vn 0.000000 0.000000 1.000000
vn -1.000000 0.000000 0.000000
vn -1.000000 0.000000 0.000000
vn -1.000000 0.000000 0.000000
vn -0.865566 -0.500794 0.000000
vn -0.865567 -0.500794 0.000000
vn 0.000000 -1.000000 0.000000
vn 0.000000 -1.000000 0.000000
vn 0.000000 -1.000000 0.000000
vn 0.865566 -0.500794 0.000000
vn 0.865566 -0.500794 0.000000
vn 1.000000 0.000000 0.000000
vn 1.000000 0.000000 0.000000
vn 1.000000 0.000000 0.000000
vn -1.000000 0.000000 0.000000
vn -1.000000 0.000000 0.000000
vn 1.000000 0.000000 0.000000
vn 1.000000 0.000000 0.000000
s 1
g frame X2Panel rectanglePanel originals
usemtl initialShadingGroup
f 1/1/1 38/2/2 39/3/3 3/4/4
s 2
f 5/5/5 30/6/6 31/7/7 7/8/8
s 3
f 48/9/9 49/10/10 35/11/11 28/12/12
s 4
f 2/13/13 53/14/14 54/15/15 4/16/16
s 5
f 44/17/17 45/18/18 1/1/19 3/4/20
s 6
f 3/4/21 39/3/22 40/19/23 9/20/24
f 4/16/25 54/21/26 55/22/27 10/23/28
f 11/24/29 29/25/30 12/26/31 43/27/32
f 58/28/33 44/29/34 3/4/21 9/20/24
s 9
f 9/20/35 40/19/36 41/30/37 13/31/38
s 10
f 10/23/39 55/22/40 56/32/41 14/33/42
s 11
f 42/34/43 43/27/44 12/26/45 16/35/46
s 12
f 57/36/47 58/28/48 9/20/49 13/31/50
s 2
f 7/8/8 31/7/7 32/37/51 17/38/52
s 4
f 52/39/53 53/40/14 2/41/13 19/42/54
s 1
f 37/43/55 38/44/2 1/45/1 20/46/56
s 5
f 1/45/19 45/47/18 46/48/57 20/46/58
s 13
f 17/38/59 32/37/60 33/49/61 21/50/62
f 51/51/63 52/39/64 19/42/65 23/52/66
f 36/53/67 37/43/68 20/46/69 24/54/70
f 20/46/69 46/48/71 47/55/72 24/54/70
s 15
f 21/50/73 33/49/74 34/56/75 25/57/76
s 16
f 50/58/77 51/51/78 23/52/79 27/59/80
s 17
f 35/11/81 36/53/82 24/54/83 28/12/84
s 18
f 24/54/85 47/55/86 48/9/87 28/12/88
s 6
f 6/60/89 30/6/90 5/5/91 29/25/30
f 29/25/30 5/5/91 12/26/31
f 6/60/89 29/25/30 11/24/29
s 2
f 31/7/7 30/6/6 6/60/92 8/61/93
f 32/37/51 31/7/7 8/61/93 18/62/94
s 13
f 33/49/61 32/37/60 18/62/95 22/63/96
s 15
f 34/56/75 33/49/74 22/63/97 26/64/98
s 3
f 35/11/11 49/10/10 50/58/99 27/59/100
s 17
f 23/52/101 36/53/82 35/11/81 27/59/102
s 13
f 19/42/65 37/43/68 36/53/67 23/52/66
s 1
f 2/41/103 38/44/2 37/43/55 19/42/104
f 39/3/3 38/2/2 2/13/103 4/16/105
s 6
f 40/19/23 39/3/22 4/16/25 10/23/28
s 9
f 41/30/37 40/19/36 10/23/106 14/33/107
s 11
f 11/24/108 43/27/44 42/34/43 15/65/109
s 5
f 7/66/110 45/18/18 44/17/17 5/67/111
f 46/48/57 45/47/18 7/8/110 17/38/112
s 13
f 47/55/72 46/48/71 17/38/59 21/50/62
s 18
f 48/9/87 47/55/86 21/50/113 25/57/114
s 3
f 25/57/115 34/56/116 49/10/10 48/9/9
f 50/58/99 49/10/10 34/56/116 26/64/117
s 16
f 22/63/118 51/51/78 50/58/77 26/64/119
s 13
f 18/62/95 52/39/64 51/51/63 22/63/96
s 4
f 8/61/120 53/40/14 52/39/53 18/62/121
f 54/15/15 53/14/14 8/68/120 6/69/122
s 6
f 55/22/27 54/21/26 6/60/89 11/24/29
s 10
f 56/32/41 55/22/40 11/24/123 15/65/124
s 12
f 12/26/125 58/28/48 57/36/47 16/35/126
s 6
f 5/5/91 44/29/34 58/28/33 12/26/31
g default
v -7.662981 0.023737 0.000000
v -10.512981 0.023737 5.900000
v -7.662981 0.023737 5.900000
v -10.512981 0.023737 0.000000
v -4.812981 0.023737 5.900000
v -4.812981 0.023737 0.000000
v -4.812981 0.023737 -5.900000
v -7.662981 0.023737 -5.900000
v -10.512981 0.023737 -5.900000
vt 0.375000 0.250000
vt 0.500000 0.250000
vt 0.500000 0.375000
vt 0.375000 0.375000
vt 0.625000 0.375000
vt 0.625000 0.250000
vt 0.500000 0.500000
vt 0.625000 0.500000
vt 0.375000 0.500000
vn 0.000000 1.000000 0.000000
vn 0.000000 1.000000 0.000000
vn 0.000000 1.000000 0.000000
vn 0.000000 1.000000 0.000000
vn 0.000000 1.000000 0.000000
vn 0.000000 1.000000 0.000000
vn 0.000000 1.000000 0.000000
vn 0.000000 1.000000 0.000000
vn 0.000000 1.000000 0.000000
s 1
g X2Panel rectanglePanel originals diffuser
usemtl initialShadingGroup
f 60/70/127 61/71/128 59/72/129 62/73/130
f 64/74/131 59/72/129 61/71/128 63/75/132
f 66/76/133 59/72/129 64/74/131 65/77/134
f 62/73/130 59/72/129 66/76/133 67/78/135
g default
v -10.162981 -0.330000 -5.664245
v -7.662981 -0.330000 -5.664245
v -5.162981 -0.330000 -5.664245
v -10.162981 -0.060000 -5.664245
v -7.662981 -0.060000 -5.664245
v -5.162981 -0.060000 -5.664245
v -10.162981 -0.060000 -6.014245
v -7.662981 -0.060000 -6.014245
v -5.162981 -0.060000 -6.014245
v -10.162981 -0.330000 -6.014245
v -7.662981 -0.330000 -6.014245
v -5.162981 -0.330000 -6.014245
vt 0.375000 0.000000
vt 0.500000 0.000000
vt 0.625000 0.000000
vt 0.375000 0.250000
vt 0.500000 0.250000
vt 0.625000 0.250000
vt 0.375000 0.500000
vt 0.500000 0.500000
vt 0.625000 0.500000
vt 0.375000 0.750000
vt 0.500000 0.750000
vt 0.625000 0.750000
vt 0.375000 1.000000
vt 0.500000 1.000000
vt 0.625000 1.000000
vt 0.875000 0.000000
vt 0.875000 0.250000
vt 0.125000 0.000000
vt 0.125000 0.250000
vn 0.000000 0.000000 1.000000
vn 0.000000 0.000000 1.000000
vn 0.000000 0.000000 1.000000
vn 0.000000 0.000000 1.000000
vn 0.000000 0.000000 1.000000
vn 0.000000 0.000000 1.000000
vn 0.000000 1.000000 0.000000
vn 0.000000 1.000000 0.000000
vn 0.000000 1.000000 0.000000
vn 0.000000 1.000000 0.000000
vn 0.000000 1.000000 0.000000
vn 0.000000 1.000000 0.000000
vn 0.000000 0.000000 -1.000000
vn 0.000000 0.000000 -1.000000
vn 0.000000 0.000000 -1.000000
vn 0.000000 0.000000 -1.000000
vn 0.000000 0.000000 -1.000000
vn 0.000000 0.000000 -1.000000
vn 0.000000 -1.000000 0.000000
vn 0.000000 -1.000000 0.000000
vn 0.000000 -1.000000 0.000000
vn 0.000000 -1.000000 0.000000
vn 0.000000 -1.000000 0.000000
vn 0.000000 -1.000000 0.000000
vn 1.000000 0.000000 0.000000
vn 1.000000 0.000000 0.000000
vn 1.000000 0.000000 0.000000
vn 1.000000 0.000000 0.000000
vn -1.000000 0.000000 0.000000
vn -1.000000 0.000000 0.000000
vn -1.000000 0.000000 0.000000
vn -1.000000 0.000000 0.000000
s 1
g rectanglePanel originals powerSupply
usemtl initialShadingGroup
f 68/79/136 69/80/137 72/83/138 71/82/139
f 69/80/137 70/81/140 73/84/141 72/83/138
s 2
f 71/82/142 72/83/143 75/86/144 74/85/145
f 72/83/143 73/84/146 76/87/147 75/86/144
s 3
f 74/85/148 75/86/149 78/89/150 77/88/151
f 75/86/149 76/87/152 79/90/153 78/89/150
s 4
f 77/88/154 78/89/155 69/92/156 68/91/157
f 78/89/155 79/90/158 70/93/159 69/92/156
s off
f 70/81/160 79/94/161 76/95/162 73/84/163
f 77/96/164 68/79/165 71/82/166 74/97/167
